ply
format ascii 1.0
comment Created by Blender 2.82 (sub 7) - www.blender.org, source file: 'reactor.blend'
element vertex 48
property float x
property float y
property float z
property float nx
property float ny
property float nz
property float s
property float t
property uchar red
property uchar green
property uchar blue
property uchar alpha
element face 14
property list uchar uint vertex_indices
end_header
-13.212036 -5.675808 13.212036 1.000000 0.000000 -0.000000 0.956121 0.969876 255 255 255 255
-13.212036 -5.675810 -13.212036 1.000000 0.000000 -0.000000 0.983139 0.969876 255 255 255 255
-13.212038 20.748264 -13.212038 1.000000 0.000000 -0.000000 0.983139 0.993363 255 255 255 255
-13.212038 20.748268 13.212034 1.000000 0.000000 -0.000000 0.956121 0.993363 255 255 255 255
13.212036 -5.675808 13.212036 0.000000 -0.000000 -1.000000 0.956121 0.946388 255 255 255 255
-13.212036 -5.675808 13.212036 0.000000 -0.000000 -1.000000 0.983139 0.946388 255 255 255 255
-13.212038 20.748268 13.212034 0.000000 -0.000000 -1.000000 0.983139 0.969876 255 255 255 255
13.212036 20.748268 13.212034 0.000000 -0.000000 -1.000000 0.956121 0.969876 255 255 255 255
-13.212036 -5.675810 -13.212036 0.000000 1.000000 -0.000000 0.908655 0.987653 255 255 255 255
-13.212036 -5.675808 13.212036 0.000000 1.000000 -0.000000 0.881637 0.987653 255 255 255 255
13.212036 -5.675808 13.212036 0.000000 1.000000 -0.000000 0.881637 0.964166 255 255 255 255
13.212036 -5.675810 -13.212036 0.000000 1.000000 -0.000000 0.908655 0.964166 255 255 255 255
-13.212036 -5.675810 -13.212036 0.000000 0.000000 1.000000 0.935672 0.987653 255 255 255 255
13.212036 -5.675810 -13.212036 0.000000 0.000000 1.000000 0.908655 0.987653 255 255 255 255
13.212036 20.748264 -13.212038 0.000000 0.000000 1.000000 0.908655 0.964166 255 255 255 255
-13.212038 20.748264 -13.212038 0.000000 0.000000 1.000000 0.935672 0.964166 255 255 255 255
-23.212034 20.748266 23.212034 -1.000000 0.000000 0.000000 0.918879 0.881637 255 255 255 255
-23.212034 20.748262 -23.212036 -1.000000 0.000000 0.000000 0.918879 0.922901 255 255 255 255
-23.212038 -15.675810 -23.212034 -1.000000 0.000000 0.000000 0.881637 0.922901 255 255 255 255
-23.212036 -15.675806 23.212034 -1.000000 0.000000 0.000000 0.881637 0.881637 255 255 255 255
13.212034 20.748270 23.212034 -0.000000 0.000000 1.000000 0.993363 0.914013 255 255 255 255
-23.212034 20.748266 23.212034 -0.000000 0.000000 1.000000 0.956121 0.914013 255 255 255 255
-23.212036 -15.675806 23.212034 -0.000000 0.000000 1.000000 0.956121 0.881637 255 255 255 255
13.212036 -15.675810 23.212036 -0.000000 0.000000 1.000000 0.993363 0.881637 255 255 255 255
13.212036 -15.675812 -23.212036 -0.000000 -1.000000 0.000000 0.918879 0.964166 255 255 255 255
13.212036 -15.675810 23.212036 -0.000000 -1.000000 0.000000 0.918879 0.922901 255 255 255 255
-23.212036 -15.675806 23.212034 -0.000000 -1.000000 0.000000 0.956121 0.922901 255 255 255 255
-23.212038 -15.675810 -23.212034 -0.000000 -1.000000 0.000000 0.956121 0.964166 255 255 255 255
-23.212034 20.748262 -23.212036 -0.000000 -0.000000 -1.000000 0.956121 0.914013 255 255 255 255
13.212036 20.748264 -23.212036 -0.000000 -0.000000 -1.000000 0.993363 0.914013 255 255 255 255
13.212036 -15.675812 -23.212036 -0.000000 -0.000000 -1.000000 0.993363 0.946388 255 255 255 255
-23.212038 -15.675810 -23.212034 -0.000000 -0.000000 -1.000000 0.956121 0.946388 255 255 255 255
-23.212034 20.748266 23.212034 -0.000000 1.000000 -0.000000 0.881637 0.922901 255 255 255 255
-13.212038 20.748268 13.212034 -0.000000 1.000000 -0.000000 0.891862 0.931790 255 255 255 255
-13.212038 20.748264 -13.212038 -0.000000 1.000000 -0.000000 0.891862 0.955277 255 255 255 255
-23.212034 20.748262 -23.212036 -0.000000 1.000000 -0.000000 0.881637 0.964166 255 255 255 255
13.212036 20.748264 -23.212036 1.000000 -0.000000 0.000000 0.918879 0.922901 255 255 255 255
13.212036 20.748264 -13.212038 1.000000 -0.000000 0.000000 0.918879 0.914013 255 255 255 255
13.212036 -5.675810 -13.212036 1.000000 -0.000000 0.000000 0.945897 0.914013 255 255 255 255
13.212036 -15.675812 -23.212036 1.000000 -0.000000 0.000000 0.956121 0.922901 255 255 255 255
13.212036 -5.675808 13.212036 1.000000 0.000000 0.000000 0.945897 0.890526 255 255 255 255
13.212036 -15.675810 23.212036 1.000000 0.000000 0.000000 0.956121 0.881637 255 255 255 255
13.212034 20.748270 23.212034 1.000000 0.000000 0.000000 0.918879 0.881637 255 255 255 255
13.212036 20.748268 13.212034 1.000000 0.000000 0.000000 0.918879 0.890526 255 255 255 255
13.212036 20.748264 -23.212036 -0.000000 1.000000 -0.000000 0.918879 0.964166 255 255 255 255
13.212036 20.748264 -13.212038 -0.000000 1.000000 -0.000000 0.918879 0.955277 255 255 255 255
13.212034 20.748270 23.212034 -0.000000 1.000000 -0.000000 0.918879 0.922901 255 255 255 255
13.212036 20.748268 13.212034 -0.000000 1.000000 -0.000000 0.918879 0.931790 255 255 255 255
4 0 1 2 3
4 4 5 6 7
4 8 9 10 11
4 12 13 14 15
4 16 17 18 19
4 20 21 22 23
4 24 25 26 27
4 28 29 30 31
4 32 33 34 35
4 36 37 38 39
4 39 38 40 41
4 42 41 40 43
4 44 35 34 45
4 46 47 33 32
