ply
format ascii 1.0
comment Created by Blender 2.82 (sub 7) - www.blender.org, source file: 'reactor-boi.blend'
element vertex 240
property float x
property float y
property float z
property float nx
property float ny
property float nz
property float s
property float t
element face 82
property list uchar uint vertex_indices
end_header
-8.340603 77.833366 -4.177744 0.647389 0.693564 0.315958 0.076156 0.337077
-8.851809 77.833366 -2.943583 0.681204 0.693564 0.234352 0.065501 0.311353
-8.851798 -5.545666 -2.943583 0.681204 0.693564 0.234352 0.065501 0.311353
-8.340591 -5.545666 -4.177744 0.647389 0.693564 0.315958 0.076156 0.337077
17.877106 -6.379967 4.312564 0.765923 -0.515976 0.383526 0.625000 0.500000
17.877106 77.833366 4.312564 0.812372 0.559069 0.165685 0.625000 1.000000
-0.000001 77.833366 11.514597 -0.003754 0.631062 0.775689 0.500000 1.000000
-0.000001 -6.379967 11.514597 -0.003754 -0.631062 0.775689 0.500000 0.500000
-8.142050 77.833366 8.142049 -0.548967 0.630238 0.548967 0.375000 1.000000
-8.142050 -6.379967 8.142049 -0.548967 -0.630238 0.548967 0.375000 0.500000
-11.514597 77.833366 0.000001 -0.776360 0.630238 0.000000 0.250000 1.000000
-11.514597 -6.379967 0.000001 -0.776360 -0.630238 0.000000 0.250000 0.500000
2.943583 77.833366 8.851809 -0.229652 0.694906 -0.681417 0.311353 0.065501
16.856388 77.833366 3.291844 0.160710 0.601703 -0.782373 0.398431 0.101569
16.856398 -5.545666 3.291844 0.362560 0.783410 -0.504746 0.398431 0.101569
2.943595 -5.545666 8.851809 -0.229652 0.694906 -0.681417 0.311353 0.065501
-8.142051 77.833366 -8.142048 -0.546739 0.629444 -0.552080 0.125000 1.000000
-8.142051 -6.379967 -8.142048 -0.546739 -0.629444 -0.552080 0.125000 0.500000
9.735056 77.833366 -15.344082 0.463668 0.559832 -0.686697 0.000000 1.000000
9.735056 -6.379967 -15.344082 0.278542 -0.518082 -0.808679 0.000000 0.500000
9.735056 -6.379967 -15.344082 0.278542 -0.518082 -0.808679 0.750000 0.490000
17.877106 -6.379967 -11.971537 0.690634 -0.214515 -0.690634 0.919706 0.419706
21.249657 -6.379967 -3.829486 0.976714 -0.214515 0.000000 0.990000 0.250000
17.877106 -6.379967 4.312564 0.765923 -0.515976 0.383526 0.919706 0.080294
-0.000001 -6.379967 11.514597 -0.003754 -0.631062 0.775689 0.750000 0.010000
-8.142050 -6.379967 8.142049 -0.548967 -0.630238 0.548967 0.580294 0.080294
-11.514597 -6.379967 0.000001 -0.776360 -0.630238 0.000000 0.510000 0.250000
-8.142051 -6.379967 -8.142048 -0.546739 -0.629444 -0.552080 0.580294 0.419706
-8.851809 77.833366 2.943584 0.681204 0.693564 -0.234352 0.065501 0.188647
-8.340602 77.833366 4.177745 0.647389 0.693564 -0.315958 0.076156 0.162923
-8.340591 -5.545666 4.177745 0.647389 0.693564 -0.315958 0.076156 0.162923
-8.851797 -5.545666 2.943585 0.681204 0.693564 -0.234352 0.065501 0.188647
16.856400 -5.545666 -10.950815 0.224250 0.948363 -0.224250 0.398431 0.398431
9.735067 -5.545666 -13.900566 0.606220 0.788507 0.103519 0.250000 0.459913
-4.177735 -5.545666 -8.340601 0.312449 0.692190 0.650533 0.162923 0.423844
-5.397007 -5.545666 -7.649937 0.416059 0.686575 0.596179 0.136597 0.411650
-6.616279 -5.545666 -6.616287 0.512406 0.689077 0.512406 0.105078 0.394922
-7.649928 -5.545666 -5.397015 0.596179 0.686575 0.416059 0.088350 0.363402
-9.225582 -5.545666 -1.593055 0.715781 0.686575 0.127354 0.055508 0.284116
-9.356837 -5.545666 0.000001 0.724662 0.689077 0.000000 0.045050 0.250000
-9.225582 -5.545666 1.593057 0.715781 0.686575 -0.127354 0.055508 0.215884
-7.649929 -5.545666 5.397018 0.596179 0.686575 -0.416059 0.088350 0.136597
-6.616280 -5.545666 6.616290 0.512406 0.689077 -0.512406 0.105078 0.105078
-5.397007 -5.545666 7.649939 0.416059 0.686575 -0.596179 0.136597 0.088350
-4.177735 -5.545666 8.340601 0.315958 0.693564 -0.647389 0.162923 0.076156
-2.943572 -5.545666 8.851809 0.234352 0.693564 -0.681204 0.188647 0.065501
-1.593045 -5.545666 9.225592 0.127354 0.686575 -0.715781 0.215884 0.055508
0.000011 -5.545666 9.356848 0.000000 0.689077 -0.724662 0.250000 0.045050
1.593067 -5.545666 9.225593 -0.127354 0.686575 -0.715781 0.284116 0.055508
19.806150 -5.545666 -3.829485 0.317179 0.948363 0.000000 0.459913 0.250000
-4.177748 77.833366 8.340601 0.315958 0.693564 -0.647389 0.162923 0.076156
-2.943584 77.833366 8.851809 0.234352 0.693564 -0.681204 0.188647 0.065501
-8.142050 77.833366 8.142049 -0.548967 0.630238 0.548967 0.080294 0.080294
-0.000001 77.833366 11.514597 -0.003754 0.631062 0.775689 0.250000 0.010000
17.877106 77.833366 4.312564 0.812372 0.559069 0.165685 0.419706 0.080294
1.593056 77.833366 9.225593 -0.127354 0.686575 -0.715781 0.284116 0.055508
-0.000000 77.833366 9.356848 0.000000 0.689077 -0.724662 0.250000 0.045050
-1.593056 77.833366 9.225592 0.127354 0.686575 -0.715781 0.215884 0.055508
-5.397018 77.833366 7.649938 0.416059 0.686575 -0.596179 0.136597 0.088350
-6.616291 77.833366 6.616290 0.512406 0.689077 -0.512406 0.105078 0.105078
-7.649939 77.833366 5.397017 0.596179 0.686575 -0.416059 0.088350 0.136597
-9.225593 77.833366 1.593057 0.715781 0.686575 -0.127354 0.055508 0.215884
-9.356848 77.833366 0.000001 0.724662 0.689077 0.000000 0.045050 0.250000
-9.225593 77.833366 -1.593055 0.715781 0.686575 0.127354 0.055508 0.284116
-7.649940 77.833366 -5.397017 0.596179 0.686575 0.416059 0.088350 0.363403
-6.616291 77.833366 -6.616289 0.512406 0.689077 0.512406 0.105078 0.394922
-5.397018 77.833366 -7.649939 0.416059 0.686575 0.596179 0.136597 0.411650
-4.177747 77.833366 -8.340600 0.312449 0.692190 0.650533 0.162923 0.423844
9.735057 77.833366 -13.900566 0.662343 0.599994 0.448592 0.250000 0.459913
9.735056 77.833366 -15.344082 0.463668 0.559832 -0.686697 0.250000 0.490000
-8.142051 77.833366 -8.142048 -0.546739 0.629444 -0.552080 0.080294 0.419706
-11.514597 77.833366 0.000001 -0.776360 0.630238 0.000000 0.010000 0.250000
2.169145 -6.028950 4.464721 0.000000 -0.643696 -0.765252 1.000000 0.500000
2.169145 26.833563 4.464721 0.000000 0.643696 -0.765252 1.000000 1.000000
2.756931 26.833563 4.655704 0.449782 0.643696 -0.619098 0.900000 1.000000
2.756931 -6.028950 4.655704 0.449782 -0.643696 -0.619098 0.900000 0.500000
3.120202 26.833563 5.155704 0.727805 0.643696 -0.236457 0.800000 1.000000
3.120202 -6.028950 5.155704 0.727805 -0.643696 -0.236457 0.800000 0.500000
3.120202 26.833563 5.773738 0.727805 0.643696 0.236457 0.700000 1.000000
3.120202 -6.028950 5.773738 0.727805 -0.643696 0.236457 0.700000 0.500000
2.756931 26.833563 6.273738 0.449782 0.643696 0.619098 0.600000 1.000000
2.756931 -6.028950 6.273738 0.449782 -0.643696 0.619098 0.600000 0.500000
2.169145 26.833563 6.464721 0.000000 0.643696 0.765252 0.500000 1.000000
2.169145 -6.028950 6.464721 0.000000 -0.643696 0.765252 0.500000 0.500000
1.581360 26.833563 6.273737 -0.449782 0.643696 0.619098 0.400000 1.000000
1.581360 -6.028950 6.273737 -0.449782 -0.643696 0.619098 0.400000 0.500000
1.218089 26.833563 5.773738 -0.727805 0.643696 0.236457 0.300000 1.000000
1.218089 -6.028950 5.773738 -0.727805 -0.643696 0.236457 0.300000 0.500000
1.218089 26.833563 5.155704 -0.727805 0.643696 -0.236457 0.200000 1.000000
1.218089 -6.028950 5.155704 -0.727805 -0.643696 -0.236457 0.200000 0.500000
2.756931 26.833563 4.655704 0.000000 1.000000 -0.000001 0.391068 0.444164
2.169145 26.833563 4.464721 0.000000 1.000000 -0.000001 0.250000 0.490000
1.581360 26.833563 4.655704 0.000000 1.000000 -0.000001 0.108932 0.444164
1.218089 26.833563 5.155704 0.000000 1.000000 -0.000001 0.021746 0.324164
1.218089 26.833563 5.773738 0.000000 1.000000 -0.000001 0.021746 0.175836
1.581360 26.833563 6.273737 0.000000 1.000000 -0.000001 0.108932 0.055836
2.169145 26.833563 6.464721 0.000000 1.000000 -0.000001 0.250000 0.010000
2.756931 26.833563 6.273738 0.000000 1.000000 -0.000001 0.391068 0.055836
3.120202 26.833563 5.773738 0.000000 1.000000 -0.000001 0.478254 0.175836
3.120202 26.833563 5.155704 0.000000 1.000000 -0.000001 0.478254 0.324164
1.581360 26.833563 4.655704 -0.449782 0.643696 -0.619098 0.100000 1.000000
1.581360 -6.028950 4.655704 -0.449782 -0.643696 -0.619098 0.100000 0.500000
2.169145 26.833563 4.464721 0.000000 0.643696 -0.765252 -0.000000 1.000000
2.169145 -6.028950 4.464721 0.000000 -0.643696 -0.765252 -0.000000 0.500000
2.169145 -6.028950 4.464721 0.000000 -1.000000 0.000000 0.750000 0.490000
2.756931 -6.028950 4.655704 0.000000 -1.000000 0.000000 0.891068 0.444164
3.120202 -6.028950 5.155704 0.000000 -1.000000 0.000000 0.978254 0.324164
3.120202 -6.028950 5.773738 0.000000 -1.000000 0.000000 0.978254 0.175836
2.756931 -6.028950 6.273738 0.000000 -1.000000 0.000000 0.891068 0.055836
2.169145 -6.028950 6.464721 0.000000 -1.000000 0.000000 0.750000 0.010000
1.581360 -6.028950 6.273737 0.000000 -1.000000 0.000000 0.608932 0.055836
1.218089 -6.028950 5.773738 0.000000 -1.000000 0.000000 0.521746 0.175836
1.218089 -6.028950 5.155704 0.000000 -1.000000 0.000000 0.521746 0.324164
1.581360 -6.028950 4.655704 0.000000 -1.000000 0.000000 0.608932 0.444164
2.787620 -6.028950 -5.932978 0.000000 -0.643696 -0.765252 1.000000 0.500000
2.787620 26.833563 -5.932978 0.000000 0.643696 -0.765252 1.000000 1.000000
3.375405 26.833563 -5.741995 0.449782 0.643696 -0.619098 0.900000 1.000000
3.375405 -6.028950 -5.741995 0.449782 -0.643696 -0.619098 0.900000 0.500000
3.738677 26.833563 -5.241995 0.727805 0.643696 -0.236457 0.800000 1.000000
3.738677 -6.028950 -5.241995 0.727805 -0.643696 -0.236457 0.800000 0.500000
3.738677 26.833563 -4.623960 0.727805 0.643696 0.236457 0.700000 1.000000
3.738677 -6.028950 -4.623960 0.727805 -0.643696 0.236457 0.700000 0.500000
3.375406 26.833563 -4.123960 0.449782 0.643696 0.619098 0.600000 1.000000
3.375406 -6.028950 -4.123960 0.449782 -0.643696 0.619098 0.600000 0.500000
2.787620 26.833563 -3.932978 0.000000 0.643696 0.765252 0.500000 1.000000
2.787620 -6.028950 -3.932978 0.000000 -0.643696 0.765252 0.500000 0.500000
2.199835 26.833563 -4.123960 -0.449782 0.643696 0.619098 0.400000 1.000000
2.199835 -6.028950 -4.123960 -0.449782 -0.643696 0.619098 0.400000 0.500000
1.836564 26.833563 -4.623960 -0.727805 0.643696 0.236457 0.300000 1.000000
1.836564 -6.028950 -4.623960 -0.727805 -0.643696 0.236457 0.300000 0.500000
1.836564 26.833563 -5.241995 -0.727805 0.643696 -0.236457 0.200000 1.000000
1.836564 -6.028950 -5.241995 -0.727805 -0.643696 -0.236457 0.200000 0.500000
3.375405 26.833563 -5.741995 0.000000 1.000000 0.000001 0.391068 0.444164
2.787620 26.833563 -5.932978 0.000000 1.000000 0.000001 0.250000 0.490000
2.199835 26.833563 -5.741994 0.000000 1.000000 0.000001 0.108932 0.444164
1.836564 26.833563 -5.241995 0.000000 1.000000 0.000001 0.021746 0.324164
1.836564 26.833563 -4.623960 0.000000 1.000000 0.000001 0.021746 0.175836
2.199835 26.833563 -4.123960 0.000000 1.000000 0.000001 0.108932 0.055836
2.787620 26.833563 -3.932978 0.000000 1.000000 0.000001 0.250000 0.010000
3.375406 26.833563 -4.123960 0.000000 1.000000 0.000001 0.391068 0.055836
3.738677 26.833563 -4.623960 0.000000 1.000000 0.000001 0.478254 0.175836
3.738677 26.833563 -5.241995 0.000000 1.000000 0.000001 0.478254 0.324164
2.199835 26.833563 -5.741994 -0.449782 0.643696 -0.619098 0.100000 1.000000
2.199835 -6.028950 -5.741994 -0.449782 -0.643696 -0.619098 0.100000 0.500000
2.787620 26.833563 -5.932978 0.000000 0.643696 -0.765252 -0.000000 1.000000
2.787620 -6.028950 -5.932978 0.000000 -0.643696 -0.765252 -0.000000 0.500000
2.787620 -6.028950 -5.932978 0.000000 -1.000000 -0.000000 0.750000 0.490000
3.375405 -6.028950 -5.741995 0.000000 -1.000000 -0.000000 0.891068 0.444164
3.738677 -6.028950 -5.241995 0.000000 -1.000000 -0.000000 0.978254 0.324164
3.738677 -6.028950 -4.623960 0.000000 -1.000000 -0.000000 0.978254 0.175836
3.375406 -6.028950 -4.123960 0.000000 -1.000000 -0.000000 0.891068 0.055836
2.787620 -6.028950 -3.932978 0.000000 -1.000000 -0.000000 0.750000 0.010000
2.199835 -6.028950 -4.123960 0.000000 -1.000000 -0.000000 0.608932 0.055836
1.836564 -6.028950 -4.623960 0.000000 -1.000000 -0.000000 0.521746 0.175836
1.836564 -6.028950 -5.241995 0.000000 -1.000000 -0.000000 0.521746 0.324164
2.199835 -6.028950 -5.741994 0.000000 -1.000000 -0.000000 0.608932 0.444164
-2.366315 -6.028950 -5.751410 0.000000 -0.643696 -0.765252 1.000000 0.500000
-2.366315 26.833563 -5.751410 0.000000 0.643696 -0.765252 1.000000 1.000000
-1.778529 26.833563 -5.560426 0.449782 0.643696 -0.619098 0.900000 1.000000
-1.778529 -6.028950 -5.560426 0.449782 -0.643696 -0.619098 0.900000 0.500000
-1.415257 26.833563 -5.060426 0.727805 0.643696 -0.236457 0.800000 1.000000
-1.415257 -6.028950 -5.060426 0.727805 -0.643696 -0.236457 0.800000 0.500000
-1.415258 26.833563 -4.442392 0.727805 0.643696 0.236457 0.700000 1.000000
-1.415258 -6.028950 -4.442392 0.727805 -0.643696 0.236457 0.700000 0.500000
-1.778528 26.833563 -3.942392 0.449782 0.643696 0.619098 0.600000 1.000000
-1.778528 -6.028950 -3.942392 0.449782 -0.643696 0.619098 0.600000 0.500000
-2.366314 26.833563 -3.751410 0.000000 0.643696 0.765252 0.500000 1.000000
-2.366314 -6.028950 -3.751410 0.000000 -0.643696 0.765252 0.500000 0.500000
-2.954099 26.833563 -3.942392 -0.449782 0.643696 0.619098 0.400000 1.000000
-2.954099 -6.028950 -3.942392 -0.449782 -0.643696 0.619098 0.400000 0.500000
-3.317370 26.833563 -4.442391 -0.727805 0.643696 0.236457 0.300000 1.000000
-3.317370 -6.028950 -4.442391 -0.727805 -0.643696 0.236457 0.300000 0.500000
-3.317371 26.833563 -5.060427 -0.727805 0.643696 -0.236457 0.200000 1.000000
-3.317371 -6.028950 -5.060427 -0.727805 -0.643696 -0.236457 0.200000 0.500000
-1.778529 26.833563 -5.560426 0.000000 1.000000 -0.000000 0.391068 0.444164
-2.366315 26.833563 -5.751410 0.000000 1.000000 -0.000000 0.250000 0.490000
-2.954099 26.833563 -5.560426 0.000000 1.000000 -0.000000 0.108932 0.444164
-3.317371 26.833563 -5.060427 0.000000 1.000000 -0.000000 0.021746 0.324164
-3.317370 26.833563 -4.442391 0.000000 1.000000 -0.000000 0.021746 0.175836
-2.954099 26.833563 -3.942392 0.000000 1.000000 -0.000000 0.108932 0.055836
-2.366314 26.833563 -3.751410 0.000000 1.000000 -0.000000 0.250000 0.010000
-1.778528 26.833563 -3.942392 0.000000 1.000000 -0.000000 0.391068 0.055836
-1.415258 26.833563 -4.442392 0.000000 1.000000 -0.000000 0.478254 0.175836
-1.415257 26.833563 -5.060426 0.000000 1.000000 -0.000000 0.478254 0.324164
-2.954099 26.833563 -5.560426 -0.449782 0.643696 -0.619098 0.100000 1.000000
-2.954099 -6.028950 -5.560426 -0.449782 -0.643696 -0.619098 0.100000 0.500000
-2.366315 26.833563 -5.751410 0.000000 0.643696 -0.765252 -0.000000 1.000000
-2.366315 -6.028950 -5.751410 0.000000 -0.643696 -0.765252 -0.000000 0.500000
-2.366315 -6.028950 -5.751410 0.000000 -1.000000 0.000000 0.750000 0.490000
-1.778529 -6.028950 -5.560426 0.000000 -1.000000 0.000000 0.891068 0.444164
-1.415257 -6.028950 -5.060426 0.000000 -1.000000 0.000000 0.978254 0.324164
-1.415258 -6.028950 -4.442392 0.000000 -1.000000 0.000000 0.978254 0.175836
-1.778528 -6.028950 -3.942392 0.000000 -1.000000 0.000000 0.891068 0.055836
-2.366314 -6.028950 -3.751410 0.000000 -1.000000 0.000000 0.750000 0.010000
-2.954099 -6.028950 -3.942392 0.000000 -1.000000 0.000000 0.608932 0.055836
-3.317370 -6.028950 -4.442391 0.000000 -1.000000 0.000000 0.521746 0.175836
-3.317371 -6.028950 -5.060427 0.000000 -1.000000 0.000000 0.521746 0.324164
-2.954099 -6.028950 -5.560426 0.000000 -1.000000 0.000000 0.608932 0.444164
-2.329865 -6.028950 3.416771 0.000000 -0.643696 -0.765252 1.000000 0.500000
-2.329865 26.833563 3.416771 0.000000 0.643696 -0.765252 1.000000 1.000000
-1.742080 26.833563 3.607754 0.449782 0.643696 -0.619098 0.900000 1.000000
-1.742080 -6.028950 3.607754 0.449782 -0.643696 -0.619098 0.900000 0.500000
-1.378808 26.833563 4.107755 0.727805 0.643696 -0.236457 0.800000 1.000000
-1.378808 -6.028950 4.107755 0.727805 -0.643696 -0.236457 0.800000 0.500000
-1.378808 26.833563 4.725788 0.727805 0.643696 0.236457 0.700000 1.000000
-1.378808 -6.028950 4.725788 0.727805 -0.643696 0.236457 0.700000 0.500000
-1.742079 26.833563 5.225788 0.449782 0.643696 0.619098 0.600000 1.000000
-1.742079 -6.028950 5.225788 0.449782 -0.643696 0.619098 0.600000 0.500000
-2.329865 26.833563 5.416772 0.000000 0.643696 0.765252 0.500000 1.000000
-2.329865 -6.028950 5.416772 0.000000 -0.643696 0.765252 0.500000 0.500000
-2.917650 26.833563 5.225788 -0.449782 0.643696 0.619098 0.400000 1.000000
-2.917650 -6.028950 5.225788 -0.449782 -0.643696 0.619098 0.400000 0.500000
-3.280921 26.833563 4.725789 -0.727805 0.643696 0.236457 0.300000 1.000000
-3.280921 -6.028950 4.725789 -0.727805 -0.643696 0.236457 0.300000 0.500000
-3.280922 26.833563 4.107754 -0.727805 0.643696 -0.236457 0.200000 1.000000
-3.280922 -6.028950 4.107754 -0.727805 -0.643696 -0.236457 0.200000 0.500000
-1.742080 26.833563 3.607754 0.000000 1.000000 -0.000001 0.391068 0.444164
-2.329865 26.833563 3.416771 0.000000 1.000000 -0.000001 0.250000 0.490000
-2.917650 26.833563 3.607754 0.000000 1.000000 -0.000001 0.108932 0.444164
-3.280922 26.833563 4.107754 0.000000 1.000000 -0.000001 0.021746 0.324164
-3.280921 26.833563 4.725789 0.000000 1.000000 -0.000001 0.021746 0.175836
-2.917650 26.833563 5.225788 0.000000 1.000000 -0.000001 0.108932 0.055836
-2.329865 26.833563 5.416772 0.000000 1.000000 -0.000001 0.250000 0.010000
-1.742079 26.833563 5.225788 0.000000 1.000000 -0.000001 0.391068 0.055836
-1.378808 26.833563 4.725788 0.000000 1.000000 -0.000001 0.478254 0.175836
-1.378808 26.833563 4.107755 0.000000 1.000000 -0.000001 0.478254 0.324164
-2.917650 26.833563 3.607754 -0.449782 0.643696 -0.619098 0.100000 1.000000
-2.917650 -6.028950 3.607754 -0.449782 -0.643696 -0.619098 0.100000 0.500000
-2.329865 26.833563 3.416771 0.000000 0.643696 -0.765252 -0.000000 1.000000
-2.329865 -6.028950 3.416771 0.000000 -0.643696 -0.765252 -0.000000 0.500000
-2.329865 -6.028950 3.416771 0.000000 -1.000000 0.000000 0.750000 0.490000
-1.742080 -6.028950 3.607754 0.000000 -1.000000 0.000000 0.891068 0.444164
-1.378808 -6.028950 4.107755 0.000000 -1.000000 0.000000 0.978254 0.324164
-1.378808 -6.028950 4.725788 0.000000 -1.000000 0.000000 0.978254 0.175836
-1.742079 -6.028950 5.225788 0.000000 -1.000000 0.000000 0.891068 0.055836
-2.329865 -6.028950 5.416772 0.000000 -1.000000 0.000000 0.750000 0.010000
-2.917650 -6.028950 5.225788 0.000000 -1.000000 0.000000 0.608932 0.055836
-3.280921 -6.028950 4.725789 0.000000 -1.000000 0.000000 0.521746 0.175836
-3.280922 -6.028950 4.107754 0.000000 -1.000000 0.000000 0.521746 0.324164
-2.917650 -6.028950 3.607754 0.000000 -1.000000 0.000000 0.608932 0.444164
4 0 1 2 3
4 4 5 6 7
4 7 6 8 9
4 9 8 10 11
4 12 13 14 15
4 11 10 16 17
4 17 16 18 19
8 20 21 22 23 24 25 26 27
4 28 29 30 31
24 32 33 34 35 36 37 3 2 38 39 40 31 30 41 42 43 44 45 46 47 48 15 14 49
4 50 51 45 44
28 52 53 54 13 12 55 56 57 51 50 58 59 60 29 28 61 62 63 1 0 64 65 66 67 68 69 70 71
4 69 68 33 19
4 4 14 13 54
4 12 15 48 55
4 55 48 47 56
4 56 47 46 57
4 57 46 45 51
4 30 29 60 41
4 41 60 59 42
4 42 59 58 43
4 43 58 50 44
4 28 31 40 61
4 61 40 39 62
4 62 39 38 63
4 63 38 2 1
4 34 67 66 35
4 35 66 65 36
4 36 65 64 37
4 37 64 0 3
4 68 67 34 33
4 22 49 14 4
4 21 32 49 22
4 19 33 32 21
4 72 73 74 75
4 75 74 76 77
4 77 76 78 79
4 79 78 80 81
4 81 80 82 83
4 83 82 84 85
4 85 84 86 87
4 87 86 88 89
10 90 91 92 93 94 95 96 97 98 99
4 89 88 100 101
4 101 100 102 103
10 104 105 106 107 108 109 110 111 112 113
4 114 115 116 117
4 117 116 118 119
4 119 118 120 121
4 121 120 122 123
4 123 122 124 125
4 125 124 126 127
4 127 126 128 129
4 129 128 130 131
10 132 133 134 135 136 137 138 139 140 141
4 131 130 142 143
4 143 142 144 145
10 146 147 148 149 150 151 152 153 154 155
4 156 157 158 159
4 159 158 160 161
4 161 160 162 163
4 163 162 164 165
4 165 164 166 167
4 167 166 168 169
4 169 168 170 171
4 171 170 172 173
10 174 175 176 177 178 179 180 181 182 183
4 173 172 184 185
4 185 184 186 187
10 188 189 190 191 192 193 194 195 196 197
4 198 199 200 201
4 201 200 202 203
4 203 202 204 205
4 205 204 206 207
4 207 206 208 209
4 209 208 210 211
4 211 210 212 213
4 213 212 214 215
10 216 217 218 219 220 221 222 223 224 225
4 215 214 226 227
4 227 226 228 229
10 230 231 232 233 234 235 236 237 238 239
