ply
format ascii 1.0
comment Created by Blender 2.82 (sub 7) - www.blender.org, source file: 'reactor.blend'
element vertex 146
property float x
property float y
property float z
property float nx
property float ny
property float nz
property float s
property float t
element face 34
property list uchar uint vertex_indices
end_header
-0.000000 3.154191 3.729264 0.000000 1.000000 0.000000 0.250000 0.114596
-2.636988 3.154191 2.636987 0.000000 1.000000 0.000000 0.154255 0.154255
-3.729264 3.154191 -0.000000 0.000000 1.000000 0.000000 0.114596 0.250000
-2.636988 3.154191 -2.636988 0.000000 1.000000 0.000000 0.154255 0.345745
-6.610001 3.154191 -0.000000 0.000000 1.000000 0.000000 0.010000 0.250000
-4.673977 3.154191 4.673975 0.000000 1.000000 0.000000 0.080294 0.080294
-0.000001 3.154191 6.610001 0.000000 1.000000 0.000000 0.250000 0.010000
4.673976 3.154191 4.673976 0.000000 1.000000 0.000000 0.419706 0.080294
6.610001 3.154191 0.000000 0.000000 1.000000 0.000000 0.490000 0.250000
4.673976 3.154191 -4.673976 0.000000 1.000000 0.000000 0.419706 0.419706
0.000000 3.154191 -6.610001 0.000000 1.000000 0.000000 0.250000 0.490000
-4.673977 3.154191 -4.673976 0.000000 1.000000 0.000000 0.080294 0.419706
0.000000 3.154191 -3.729264 0.000000 1.000000 0.000000 0.250000 0.385404
2.636988 3.154191 -2.636988 0.000000 1.000000 0.000000 0.345745 0.345745
3.729264 3.154191 0.000000 0.000000 1.000000 0.000000 0.385404 0.250000
2.636988 3.154191 2.636988 0.000000 1.000000 0.000000 0.345745 0.154255
-4.673977 3.154191 -4.673976 -0.382684 0.000000 -0.923879 0.125000 1.000000
0.000000 3.154191 -6.610001 -0.382684 0.000000 -0.923879 0.000000 1.000000
0.000000 -5.675810 -6.610001 -0.382684 0.000000 -0.923879 0.000000 0.500000
-4.673977 -5.675810 -4.673976 -0.382684 0.000000 -0.923879 0.125000 0.500000
-2.636988 3.154191 -2.636988 0.382683 0.000000 0.923880 0.154255 0.345745
-2.636988 -1.137521 -2.636988 0.382683 0.000000 0.923880 0.154255 0.345745
-0.000000 -1.137521 -3.729264 0.382683 0.000000 0.923880 0.250000 0.385404
0.000000 3.154191 -3.729264 0.382683 0.000000 0.923880 0.250000 0.385404
0.000000 3.154191 -6.610001 0.382683 0.000000 -0.923879 1.000000 1.000000
4.673976 3.154191 -4.673976 0.382683 0.000000 -0.923879 0.875000 1.000000
4.673976 -5.675810 -4.673976 0.382683 0.000000 -0.923879 0.875000 0.500000
0.000000 -5.675810 -6.610001 0.382683 0.000000 -0.923879 1.000000 0.500000
4.673976 3.154191 -4.673976 0.923880 0.000000 -0.382683 0.875000 1.000000
6.610001 3.154191 0.000000 0.923880 0.000000 -0.382683 0.750000 1.000000
6.610001 -5.675810 0.000000 0.923880 0.000000 -0.382683 0.750000 0.500000
4.673976 -5.675810 -4.673976 0.923880 0.000000 -0.382683 0.875000 0.500000
3.729264 3.154191 0.000000 -0.923880 0.000000 -0.382684 0.385404 0.250000
3.729264 -1.137521 0.000000 -0.923880 0.000000 -0.382684 0.385404 0.250000
2.636988 -1.137521 2.636988 -0.923880 0.000000 -0.382684 0.345745 0.154255
2.636988 3.154191 2.636988 -0.923880 0.000000 -0.382684 0.345745 0.154255
-0.000001 3.154191 6.610001 -0.382684 0.000000 0.923879 0.500000 1.000000
-4.673977 3.154191 4.673975 -0.382684 0.000000 0.923879 0.375000 1.000000
-4.673977 -5.675810 4.673975 -0.382684 0.000000 0.923879 0.375000 0.500000
-0.000001 -5.675810 6.610001 -0.382684 0.000000 0.923879 0.500000 0.500000
-2.636988 3.154191 2.636987 0.382684 -0.000000 -0.923879 0.154255 0.154255
-0.000000 3.154191 3.729264 0.382684 -0.000000 -0.923879 0.250000 0.114596
-0.000000 -1.137521 3.729264 0.382684 -0.000000 -0.923879 0.250000 0.114596
-2.636988 -1.137521 2.636987 0.382684 -0.000000 -0.923879 0.154255 0.154255
-3.729264 3.154191 -0.000000 0.923880 0.000000 0.382683 0.114596 0.250000
-3.729264 -1.137521 -0.000000 0.923880 0.000000 0.382683 0.114596 0.250000
-2.636988 -1.137521 -2.636988 0.923880 0.000000 0.382683 0.154255 0.345745
-2.636988 3.154191 -2.636988 0.923880 0.000000 0.382683 0.154255 0.345745
-2.636988 3.154191 2.636987 0.923880 0.000000 -0.382683 0.154255 0.154255
-2.636988 -1.137521 2.636987 0.923880 0.000000 -0.382683 0.154255 0.154255
-3.729264 -1.137521 -0.000000 0.923880 0.000000 -0.382683 0.114596 0.250000
-3.729264 3.154191 -0.000000 0.923880 0.000000 -0.382683 0.114596 0.250000
-6.610001 3.154191 -0.000000 -0.923880 0.000000 -0.382683 0.250000 1.000000
-4.673977 3.154191 -4.673976 -0.923880 0.000000 -0.382683 0.125000 1.000000
-4.673977 -5.675810 -4.673976 -0.923880 0.000000 -0.382683 0.125000 0.500000
-6.610001 -5.675810 -0.000000 -0.923880 0.000000 -0.382683 0.250000 0.500000
-4.673977 3.154191 4.673975 -0.923880 0.000000 0.382683 0.375000 1.000000
-6.610001 3.154191 -0.000000 -0.923880 0.000000 0.382683 0.250000 1.000000
-6.610001 -5.675810 -0.000000 -0.923880 0.000000 0.382683 0.250000 0.500000
-4.673977 -5.675810 4.673975 -0.923880 0.000000 0.382683 0.375000 0.500000
2.636988 3.154191 -2.636988 -0.923880 0.000000 0.382684 0.345745 0.345745
2.636988 -1.137521 -2.636988 -0.923880 0.000000 0.382684 0.345745 0.345745
3.729264 -1.137521 0.000000 -0.923880 0.000000 0.382684 0.385404 0.250000
3.729264 3.154191 0.000000 -0.923880 0.000000 0.382684 0.385404 0.250000
0.000000 3.154191 -3.729264 -0.382683 0.000000 0.923880 0.250000 0.385404
-0.000000 -1.137521 -3.729264 -0.382683 0.000000 0.923880 0.250000 0.385404
2.636988 -1.137521 -2.636988 -0.382683 0.000000 0.923880 0.345745 0.345745
2.636988 3.154191 -2.636988 -0.382683 0.000000 0.923880 0.345745 0.345745
6.610001 3.154191 0.000000 0.923879 0.000000 0.382684 0.750000 1.000000
4.673976 3.154191 4.673976 0.923879 0.000000 0.382684 0.625000 1.000000
4.673976 -5.675810 4.673976 0.923879 0.000000 0.382684 0.625000 0.500000
6.610001 -5.675810 0.000000 0.923879 0.000000 0.382684 0.750000 0.500000
4.673976 3.154191 4.673976 0.382683 0.000000 0.923880 0.625000 1.000000
-0.000001 3.154191 6.610001 0.382683 0.000000 0.923880 0.500000 1.000000
-0.000001 -5.675810 6.610001 0.382683 0.000000 0.923880 0.500000 0.500000
4.673976 -5.675810 4.673976 0.382683 0.000000 0.923880 0.625000 0.500000
4.673976 -5.675810 4.673976 0.000000 -1.000000 -0.000000 0.919706 0.080294
-0.000001 -5.675810 6.610001 0.000000 -1.000000 -0.000000 0.750000 0.010000
-4.673977 -5.675810 4.673975 0.000000 -1.000000 -0.000000 0.580294 0.080294
-6.610001 -5.675810 -0.000000 0.000000 -1.000000 -0.000000 0.510000 0.250000
-4.673977 -5.675810 -4.673976 0.000000 -1.000000 -0.000000 0.580294 0.419706
0.000000 -5.675810 -6.610001 0.000000 -1.000000 -0.000000 0.750000 0.490000
4.673976 -5.675810 -4.673976 0.000000 -1.000000 -0.000000 0.919706 0.419706
6.610001 -5.675810 0.000000 0.000000 -1.000000 -0.000000 0.990000 0.250000
-0.000000 -1.137521 3.729264 0.000000 1.000000 0.000000 0.250000 0.114596
2.636988 -1.137521 2.636988 0.000000 1.000000 0.000000 0.345745 0.154255
3.729264 -1.137521 0.000000 0.000000 1.000000 0.000000 0.385404 0.250000
2.636988 -1.137521 -2.636988 0.000000 1.000000 0.000000 0.345745 0.345745
-0.000000 -1.137521 -3.729264 0.000000 1.000000 0.000000 0.250000 0.385404
-2.636988 -1.137521 -2.636988 0.000000 1.000000 0.000000 0.154255 0.345745
-3.729264 -1.137521 -0.000000 0.000000 1.000000 0.000000 0.114596 0.250000
-2.636988 -1.137521 2.636987 0.000000 1.000000 0.000000 0.154255 0.154255
2.636988 3.154191 2.636988 -0.382683 0.000000 -0.923880 0.345745 0.154255
2.636988 -1.137521 2.636988 -0.382683 0.000000 -0.923880 0.345745 0.154255
-0.000000 -1.137521 3.729264 -0.382683 0.000000 -0.923880 0.250000 0.114596
-0.000000 3.154191 3.729264 -0.382683 0.000000 -0.923880 0.250000 0.114596
-13.212037 -5.675809 -13.212037 1.000000 0.000000 0.000000 0.375000 0.250000
-13.212037 20.748266 -13.212037 1.000000 0.000000 0.000000 0.625000 0.250000
-13.212037 20.748266 13.212037 1.000000 0.000000 0.000000 0.625000 0.000000
-13.212037 -5.675809 13.212037 1.000000 0.000000 0.000000 0.375000 0.000000
-13.212037 -5.675809 13.212037 -0.000000 0.000000 -1.000000 0.375000 1.000000
-13.212037 20.748266 13.212037 -0.000000 0.000000 -1.000000 0.625000 1.000000
13.212037 20.748266 13.212037 -0.000000 0.000000 -1.000000 0.625000 0.750000
13.212037 -5.675809 13.212037 -0.000000 0.000000 -1.000000 0.375000 0.750000
-13.212037 -5.675809 13.212037 0.000000 1.000000 -0.000000 0.125000 0.750000
13.212037 -5.675809 13.212037 0.000000 1.000000 -0.000000 0.375000 0.750000
13.212037 -5.675809 -13.212037 0.000000 1.000000 -0.000000 0.375000 0.500000
-13.212037 -5.675809 -13.212037 0.000000 1.000000 -0.000000 0.125000 0.500000
13.212037 -5.675809 -13.212037 -0.000000 0.000000 1.000000 0.375000 0.500000
13.212037 20.748266 -13.212037 -0.000000 0.000000 1.000000 0.625000 0.500000
-13.212037 20.748266 -13.212037 -0.000000 0.000000 1.000000 0.625000 0.250000
-13.212037 -5.675809 -13.212037 -0.000000 0.000000 1.000000 0.375000 0.250000
-23.212036 -15.675808 -23.212036 -1.000000 -0.000000 0.000000 0.375000 0.250000
-23.212036 -15.675808 23.212036 -1.000000 -0.000000 0.000000 0.375000 0.000000
-23.212036 20.748266 23.212036 -1.000000 -0.000000 0.000000 0.625000 0.000000
-23.212036 20.748266 -23.212036 -1.000000 -0.000000 0.000000 0.625000 0.250000
-23.212036 -15.675808 23.212036 0.000000 0.000000 1.000000 0.375000 1.000000
13.212037 -15.675810 23.212036 0.000000 0.000000 1.000000 0.375000 0.750000
13.212037 20.748266 23.212036 0.000000 0.000000 1.000000 0.625000 0.750000
-23.212036 20.748266 23.212036 0.000000 0.000000 1.000000 0.625000 1.000000
-23.212036 -15.675808 23.212036 -0.000000 -1.000000 0.000000 0.125000 0.750000
-23.212036 -15.675808 -23.212036 -0.000000 -1.000000 0.000000 0.125000 0.500000
13.212037 -15.675810 -23.212036 -0.000000 -1.000000 0.000000 0.375000 0.500000
13.212037 -15.675810 23.212036 -0.000000 -1.000000 0.000000 0.375000 0.750000
13.212037 -15.675810 -23.212036 0.000000 -0.000000 -1.000000 0.375000 0.500000
-23.212036 -15.675808 -23.212036 0.000000 -0.000000 -1.000000 0.375000 0.250000
-23.212036 20.748266 -23.212036 0.000000 -0.000000 -1.000000 0.625000 0.250000
13.212037 20.748266 -23.212036 0.000000 -0.000000 -1.000000 0.625000 0.500000
-13.212037 20.748266 13.212037 -0.000000 1.000000 0.000000 0.625000 0.000000
-13.212037 20.748266 -13.212037 -0.000000 1.000000 0.000000 0.625000 0.250000
-23.212036 20.748266 -23.212036 -0.000000 1.000000 0.000000 0.625000 0.250000
-23.212036 20.748266 23.212036 -0.000000 1.000000 0.000000 0.625000 0.000000
13.212037 20.748266 -13.212037 1.000000 0.000000 -0.000000 0.625000 0.500000
13.212037 -5.675809 -13.212037 1.000000 0.000000 -0.000000 0.375000 0.500000
13.212037 -15.675810 -23.212036 1.000000 0.000000 -0.000000 0.375000 0.500000
13.212037 20.748266 -23.212036 1.000000 0.000000 -0.000000 0.625000 0.500000
13.212037 -5.675809 13.212037 1.000000 -0.000000 0.000000 0.375000 0.750000
13.212037 -15.675810 23.212036 1.000000 -0.000000 0.000000 0.375000 0.750000
13.212037 20.748266 13.212037 1.000000 0.000000 0.000000 0.625000 0.750000
13.212037 20.748266 23.212036 1.000000 0.000000 0.000000 0.625000 0.750000
13.212037 20.748266 -13.212037 0.000000 1.000000 -0.000000 0.625000 0.500000
13.212037 20.748266 -23.212036 0.000000 1.000000 -0.000000 0.625000 0.500000
13.212037 20.748266 13.212037 0.000000 1.000000 0.000000 0.625000 0.750000
-13.212037 20.748266 13.212037 0.000000 1.000000 0.000000 0.625000 1.000000
-23.212036 20.748266 23.212036 0.000000 1.000000 0.000000 0.625000 1.000000
13.212037 20.748266 23.212036 0.000000 1.000000 0.000000 0.625000 0.750000
16 0 1 2 3 4 5 6 7 8 9 10 11 12 13 14 15
4 16 17 18 19
4 20 21 22 23
4 24 25 26 27
4 28 29 30 31
4 32 33 34 35
4 11 4 3 12
4 36 37 38 39
4 40 41 42 43
4 44 45 46 47
4 48 49 50 51
4 52 53 54 55
4 56 57 58 59
4 60 61 62 63
4 64 65 66 67
4 68 69 70 71
4 72 73 74 75
8 76 77 78 79 80 81 82 83
8 84 85 86 87 88 89 90 91
4 92 93 94 95
4 96 97 98 99
4 100 101 102 103
4 104 105 106 107
4 108 109 110 111
4 112 113 114 115
4 116 117 118 119
4 120 121 122 123
4 124 125 126 127
4 128 129 130 131
4 132 133 134 135
4 133 136 137 134
4 136 138 139 137
4 129 140 141 130
4 142 143 144 145
