ply
format ascii 1.0
comment Created by Blender 2.82 (sub 7) - www.blender.org, source file: ''
element vertex 114
property float x
property float y
property float z
property float nx
property float ny
property float nz
property float s
property float t
element face 68
property list uchar uint vertex_indices
end_header
-13.212037 -5.675809 -13.212037 1.000000 -0.000000 0.000000 0.375000 0.250000
-13.212037 20.748266 13.212037 1.000000 -0.000000 0.000000 0.625000 0.000000
-13.212037 -5.675809 13.212037 1.000000 -0.000000 0.000000 0.375000 0.000000
13.212037 -5.675809 -13.212037 -0.000000 0.000000 1.000000 0.375000 0.500000
-13.212037 20.748266 -13.212037 -0.000000 0.000000 1.000000 0.625000 0.250000
-13.212037 -5.675809 -13.212037 -0.000000 0.000000 1.000000 0.375000 0.250000
-13.212037 -5.675809 13.212037 -0.000000 0.000000 -1.000000 0.375000 1.000000
13.212037 20.748266 13.212037 -0.000000 0.000000 -1.000000 0.625000 0.750000
13.212037 -5.675809 13.212037 -0.000000 0.000000 -1.000000 0.375000 0.750000
-13.212037 -5.675809 13.212037 0.000000 1.000000 -0.000000 0.125000 0.750000
13.212037 -5.675809 -13.212037 0.000000 1.000000 -0.000000 0.375000 0.500000
-13.212037 -5.675809 -13.212037 0.000000 1.000000 -0.000000 0.125000 0.500000
0.000000 3.154191 -6.610001 0.382683 0.000000 -0.923879 1.000000 1.000000
4.673976 -5.675810 -4.673976 0.382683 0.000000 -0.923879 0.875000 0.500000
0.000000 -5.675810 -6.610001 0.382683 0.000000 -0.923879 1.000000 0.500000
4.673976 3.154191 -4.673976 0.923880 0.000000 -0.382683 0.875000 1.000000
6.610001 -5.675810 0.000000 0.923880 0.000000 -0.382683 0.750000 0.500000
4.673976 -5.675810 -4.673976 0.923880 0.000000 -0.382683 0.875000 0.500000
6.610001 3.154191 0.000000 0.923879 0.000000 0.382684 0.750000 1.000000
4.673976 -5.675810 4.673976 0.923879 0.000000 0.382684 0.625000 0.500000
6.610001 -5.675810 0.000000 0.923879 0.000000 0.382684 0.750000 0.500000
4.673976 3.154191 4.673976 0.382683 0.000000 0.923880 0.625000 1.000000
-0.000001 -5.675810 6.610001 0.382683 0.000000 0.923880 0.500000 0.500000
4.673976 -5.675810 4.673976 0.382683 0.000000 0.923880 0.625000 0.500000
-0.000001 3.154191 6.610001 -0.382684 0.000000 0.923879 0.500000 1.000000
-4.673977 -5.675810 4.673975 -0.382684 0.000000 0.923879 0.375000 0.500000
-0.000001 -5.675810 6.610001 -0.382684 0.000000 0.923879 0.500000 0.500000
-4.673977 3.154191 4.673975 -0.923880 0.000000 0.382683 0.375000 1.000000
-6.610001 -5.675810 -0.000000 -0.923880 0.000000 0.382683 0.250000 0.500000
-4.673977 -5.675810 4.673975 -0.923880 0.000000 0.382683 0.375000 0.500000
2.636988 3.154191 -2.636988 -0.923880 0.000000 0.382684 0.345745 0.345745
3.729264 -1.137521 0.000000 -0.923880 0.000000 0.382684 0.385404 0.250000
3.729264 3.154191 0.000000 -0.923880 0.000000 0.382684 0.385404 0.250000
-6.610001 3.154191 -0.000000 -0.923880 0.000000 -0.382683 0.250000 1.000000
-4.673977 -5.675810 -4.673976 -0.923880 0.000000 -0.382683 0.125000 0.500000
-6.610001 -5.675810 -0.000000 -0.923880 0.000000 -0.382683 0.250000 0.500000
-4.673977 3.154191 -4.673976 -0.382684 0.000000 -0.923879 0.125000 1.000000
0.000000 -5.675810 -6.610001 -0.382684 0.000000 -0.923879 0.000000 0.500000
-4.673977 -5.675810 -4.673976 -0.382684 0.000000 -0.923879 0.125000 0.500000
4.673976 -5.675810 -4.673976 0.000000 -1.000000 0.000000 0.919706 0.419706
4.673976 -5.675810 4.673976 0.000000 -1.000000 0.000000 0.919706 0.080294
-4.673977 -5.675810 4.673975 0.000000 -1.000000 0.000000 0.580294 0.080294
2.636988 3.154191 -2.636988 -0.000000 1.000000 0.000000 0.345745 0.345745
0.000000 3.154191 -6.610001 -0.000000 1.000000 0.000000 0.250000 0.490000
0.000000 3.154191 -3.729264 -0.000000 1.000000 0.000000 0.250000 0.385404
3.729264 3.154191 0.000000 -0.000000 1.000000 -0.000000 0.385404 0.250000
4.673976 3.154191 -4.673976 -0.000000 1.000000 -0.000000 0.419706 0.419706
4.673976 3.154191 4.673976 0.000000 1.000000 0.000000 0.419706 0.080294
6.610001 3.154191 0.000000 0.000000 1.000000 0.000000 0.490000 0.250000
-0.000000 3.154191 3.729264 0.000000 1.000000 -0.000000 0.250000 0.114596
2.636988 3.154191 2.636988 0.000000 1.000000 -0.000000 0.345745 0.154255
-4.673977 3.154191 4.673975 0.000000 1.000000 0.000000 0.080294 0.080294
-0.000001 3.154191 6.610001 0.000000 1.000000 0.000000 0.250000 0.010000
-3.729264 3.154191 -0.000000 0.000000 1.000000 0.000000 0.114596 0.250000
-2.636988 3.154191 2.636987 0.000000 1.000000 0.000000 0.154255 0.154255
-2.636988 3.154191 -2.636988 0.000000 1.000000 0.000000 0.154255 0.345745
-6.610001 3.154191 -0.000000 0.000000 1.000000 0.000000 0.010000 0.250000
-4.673977 3.154191 -4.673976 -0.000000 1.000000 0.000000 0.080294 0.419706
-0.000000 -1.137521 -3.729264 0.000000 1.000000 0.000000 0.250000 0.385404
-3.729264 -1.137521 -0.000000 0.000000 1.000000 0.000000 0.114596 0.250000
-0.000000 -1.137521 3.729264 0.000000 1.000000 0.000000 0.250000 0.114596
-3.729264 3.154191 -0.000000 0.923880 0.000000 0.382683 0.114596 0.250000
-2.636988 -1.137521 -2.636988 0.923880 0.000000 0.382683 0.154255 0.345745
-2.636988 3.154191 -2.636988 0.923880 0.000000 0.382683 0.154255 0.345745
-2.636988 3.154191 2.636987 0.382684 0.000000 -0.923879 0.154255 0.154255
-0.000000 -1.137521 3.729264 0.382684 0.000000 -0.923879 0.250000 0.114596
-2.636988 -1.137521 2.636987 0.382684 0.000000 -0.923879 0.154255 0.154255
3.729264 3.154191 0.000000 -0.923880 -0.000000 -0.382684 0.385404 0.250000
2.636988 -1.137521 2.636988 -0.923880 -0.000000 -0.382684 0.345745 0.154255
2.636988 3.154191 2.636988 -0.923880 -0.000000 -0.382684 0.345745 0.154255
0.000000 3.154191 -3.729264 -0.382683 0.000000 0.923880 0.250000 0.385404
2.636988 -1.137521 -2.636988 -0.382683 0.000000 0.923880 0.345745 0.345745
2.636988 3.154191 -2.636988 -0.382683 0.000000 0.923880 0.345745 0.345745
-2.636988 3.154191 -2.636988 0.382683 -0.000000 0.923880 0.154255 0.345745
-0.000000 -1.137521 -3.729264 0.382683 -0.000000 0.923880 0.250000 0.385404
0.000000 3.154191 -3.729264 0.382683 -0.000000 0.923880 0.250000 0.385404
-2.636988 3.154191 2.636987 0.923880 0.000000 -0.382683 0.154255 0.154255
-3.729264 -1.137521 -0.000000 0.923880 0.000000 -0.382683 0.114596 0.250000
-3.729264 3.154191 -0.000000 0.923880 0.000000 -0.382683 0.114596 0.250000
2.636988 3.154191 2.636988 -0.382683 0.000000 -0.923880 0.345745 0.154255
-0.000000 -1.137521 3.729264 -0.382683 0.000000 -0.923880 0.250000 0.114596
-0.000000 3.154191 3.729264 -0.382683 0.000000 -0.923880 0.250000 0.114596
-13.212037 20.748266 -13.212037 1.000000 0.000000 0.000000 0.625000 0.250000
13.212037 20.748266 -13.212037 -0.000000 0.000000 1.000000 0.625000 0.500000
-13.212037 20.748266 13.212037 -0.000000 -0.000000 -1.000000 0.625000 1.000000
13.212037 -5.675809 13.212037 0.000000 1.000000 -0.000000 0.375000 0.750000
4.673976 3.154191 -4.673976 0.382683 0.000000 -0.923879 0.875000 1.000000
6.610001 3.154191 0.000000 0.923880 0.000000 -0.382683 0.750000 1.000000
4.673976 3.154191 4.673976 0.923879 -0.000000 0.382684 0.625000 1.000000
-0.000001 3.154191 6.610001 0.382683 -0.000000 0.923880 0.500000 1.000000
-4.673977 3.154191 4.673975 -0.382684 0.000000 0.923879 0.375000 1.000000
-6.610001 3.154191 -0.000000 -0.923880 0.000000 0.382683 0.250000 1.000000
2.636988 -1.137521 -2.636988 -0.923880 0.000000 0.382684 0.345745 0.345745
-4.673977 3.154191 -4.673976 -0.923880 0.000000 -0.382683 0.125000 1.000000
0.000000 3.154191 -6.610001 -0.382684 0.000000 -0.923879 0.000000 1.000000
-4.673977 -5.675810 -4.673976 -0.000000 -1.000000 0.000000 0.580294 0.419706
0.000000 -5.675810 -6.610001 -0.000000 -1.000000 0.000000 0.750000 0.490000
6.610001 -5.675810 0.000000 0.000000 -1.000000 -0.000000 0.990000 0.250000
-0.000001 -5.675810 6.610001 0.000000 -1.000000 0.000000 0.750000 0.010000
-6.610001 -5.675810 -0.000000 0.000000 -1.000000 0.000000 0.510000 0.250000
3.729264 -1.137521 0.000000 0.000000 1.000000 0.000000 0.385404 0.250000
2.636988 -1.137521 -2.636988 0.000000 1.000000 0.000000 0.345745 0.345745
-2.636988 -1.137521 -2.636988 0.000000 1.000000 0.000000 0.154255 0.345745
-2.636988 -1.137521 2.636987 0.000000 1.000000 0.000000 0.154255 0.154255
2.636988 -1.137521 2.636988 0.000000 1.000000 0.000000 0.345745 0.154255
-3.729264 -1.137521 -0.000000 0.923880 -0.000000 0.382683 0.114596 0.250000
-2.636988 3.154191 2.636987 0.382684 -0.000000 -0.923880 0.154255 0.154255
-0.000000 3.154191 3.729264 0.382684 -0.000000 -0.923880 0.250000 0.114596
-0.000000 -1.137521 3.729264 0.382684 -0.000000 -0.923880 0.250000 0.114596
3.729264 -1.137521 0.000000 -0.923880 0.000000 -0.382684 0.385404 0.250000
-0.000000 -1.137521 -3.729264 -0.382683 0.000000 0.923880 0.250000 0.385404
-2.636988 -1.137521 -2.636988 0.382683 -0.000000 0.923880 0.154255 0.345745
-2.636988 -1.137521 2.636987 0.923880 0.000000 -0.382683 0.154255 0.154255
2.636988 -1.137521 2.636988 -0.382683 0.000000 -0.923880 0.345745 0.154255
3 0 1 2
3 3 4 5
3 6 7 8
3 9 10 11
3 12 13 14
3 15 16 17
3 18 19 20
3 21 22 23
3 24 25 26
3 27 28 29
3 30 31 32
3 33 34 35
3 36 37 38
3 39 40 41
3 42 43 44
3 45 46 42
3 45 47 48
3 49 47 50
3 49 51 52
3 53 51 54
3 55 56 53
3 44 57 55
3 58 59 60
3 61 62 63
3 64 65 66
3 67 68 69
3 70 71 72
3 73 74 75
3 76 77 78
3 79 80 81
3 0 82 1
3 3 83 4
3 6 84 7
3 9 85 10
3 12 86 13
3 15 87 16
3 18 88 19
3 21 89 22
3 24 90 25
3 27 91 28
3 30 92 31
3 33 93 34
3 36 94 37
3 95 96 39
3 39 97 40
3 40 98 41
3 41 99 95
3 95 39 41
3 42 46 43
3 45 48 46
3 45 50 47
3 49 52 47
3 49 54 51
3 53 56 51
3 55 57 56
3 44 43 57
3 100 101 58
3 58 102 59
3 59 103 60
3 60 104 100
3 100 58 60
3 61 105 62
3 106 107 108
3 67 109 68
3 70 110 71
3 73 111 74
3 76 112 77
3 79 113 80
